<svg xmlns="http://www.w3.org/2000/svg" x="0px" y="0px" width="100" height="100" viewBox="0 0 50 50">
<path d="M14.67,26.65v4.88c0.5-0.51,0.98-1.44,0.98-3.12C15.65,27.42,15.15,26.91,14.67,26.65z M15.51,19.43	c-0.25-0.23-0.55-0.37-0.84-0.44v4.92c0.66-0.49,1.4-1.37,1.4-2.86C16.07,20.31,15.88,19.78,15.51,19.43z M16.07,21.05	c0-0.74-0.19-1.27-0.56-1.62c-0.25-0.23-0.55-0.37-0.84-0.44v4.92C15.33,23.42,16.07,22.54,16.07,21.05z M14.67,26.65v4.88	c0.5-0.51,0.98-1.44,0.98-3.12C15.65,27.42,15.15,26.91,14.67,26.65z M36,3.92H14c-5.51,0-10,4.49-10,10v22c0,5.52,4.49,10,10,10h22	c5.51,0,10-4.48,10-10v-22C46,8.41,41.51,3.92,36,3.92z M7.5,26.36l0.15-1.2l-0.97-0.8l1.18-0.39l0.73-1.25l0.49,1.25h1.34	l-0.95,1.19l0.26,1.13l-1.07-0.55L7.5,26.36z M11.08,35.36l-0.12,0.71l-0.56-0.45l-0.71,0.16l0.16-0.68l-0.4-0.63l0.82,0.06	l0.5-0.63l0.16,0.73l0.74,0.33L11.08,35.36z M17.65,28.41c0,4.21-2.53,5.59-3.87,5.73h-0.11c-0.24,0-0.48-0.09-0.67-0.26	c-0.21-0.18-0.33-0.46-0.33-0.74V17.88c0-0.51,0.4-0.95,0.92-0.99c0.2-0.02,1.97-0.13,3.26,1.06c0.81,0.74,1.22,1.78,1.22,3.1	c0,1.98-0.89,3.35-1.89,4.21C16.99,25.88,17.65,26.88,17.65,28.41z M23.53,18.68c-0.03,0.04-0.08,0.09-0.14,0.16	c-1.51,1.55-2.25,3.95-2.57,6.39c0.08-0.01,0.16-0.01,0.25-0.01c1.21,0,1.81,0.76,2.11,1.67c0.31,0.92,0.31,1.99,0.31,2.64	c0.01,1.18-0.14,3.31-1.16,4.33c-0.38,0.39-0.86,0.59-1.37,0.59c-2.26,0-2.32-3.05-2.36-4.87c-0.01-0.52-0.01-1.07,0.01-1.63v-0.07	c0-0.01,0-0.01,0-0.02c0.11-3.61,0.84-7.85,3.35-10.42c0.35-0.42,1.01-0.5,1.43-0.14C23.81,17.66,23.89,18.26,23.53,18.68z M21.97,11.9l-0.21,2.16l-1.45-1.25l-2.03,0.38l0.56-1.67l-1.01-1.88l2.1,0.3l1.31-1.81l0.28,2.1l2.37,0.66L21.97,11.9z M31.76,41.25l-1.07-0.28l-0.99,0.58l-0.04-1l-1.08-0.56l1.2-0.43l0.31-1.04l0.69,0.88l1.27-0.03l-0.6,0.84L31.76,41.25z M31.27,35.54h-4.11c-0.55,0-1-0.44-1-1c0-0.55,0.45-1,1-1h0.79c0.28-1.92,0.13-4.83,0.02-7.03c-0.02-0.55-0.05-1.07-0.07-1.54	c-0.05-1.3,0-3.41,0.06-5.28c-1.18,1.18-2.39,1.81-2.48,1.86c-0.49,0.25-1.09,0.06-1.34-0.44c-0.26-0.49-0.06-1.09,0.43-1.34	c0.04-0.03,3-1.6,3.56-4.21c0.11-0.51,0.6-0.85,1.11-0.78c0.52,0.07,0.9,0.52,0.87,1.04c0,0.06-0.31,6.45-0.21,9.07	c0.02,0.46,0.05,0.98,0.07,1.52c0.12,2.29,0.25,5.05,0,7.13h1.3c0.55,0,1,0.45,1,1C32.27,35.1,31.82,35.54,31.27,35.54z M36.74,32.39c0.55,0,1,0.45,1,1c0,0.56-0.45,1-1,1h-2.89c-0.55,0-1-0.44-1-1c0-4.21,1.14-7.6,1.98-10.08	c0.49-1.45,0.91-2.71,0.91-3.57c0-1.93-0.89-1.93-1.23-1.93c-1.23,0-1.53,0.86-1.57,1.03c-0.15,0.52-0.69,0.85-1.22,0.71	c-0.52-0.13-0.85-0.66-0.73-1.19c0.21-0.88,1.21-2.55,3.52-2.55c1.99,0,3.23,1.51,3.23,3.93c0,1.19-0.45,2.52-1.02,4.21	c-0.76,2.26-1.69,5.02-1.85,8.44H36.74z M36.98,15.7l0.13-1.27l-1.55-1l1.81-0.48l0.4-1.34l0.92,1.32L40.4,13l-0.96,1.06l0.31,1.46	l-1.37-0.54L36.98,15.7z M41.91,23.23l-0.06,0.9l-0.94-0.71l-0.87,0.47l0.33-0.83l-0.72-0.89l1.06,0.06l0.69-0.84l0.33,1.09	l0.88,0.29L41.91,23.23z M20.6,29.54c0.04,1.95,0.26,2.63,0.37,2.85c0.21-0.29,0.53-1.26,0.52-2.86c0-2.01-0.31-2.28-0.34-2.3h-0.01	c-0.44,0-0.53,0.67-0.53,0.76C20.59,28.53,20.59,29.05,20.6,29.54z M14.67,18.99v4.92c0.66-0.49,1.4-1.37,1.4-2.86	c0-0.74-0.19-1.27-0.56-1.62C15.26,19.2,14.96,19.06,14.67,18.99z M14.67,26.65v4.88c0.5-0.51,0.98-1.44,0.98-3.12	C15.65,27.42,15.15,26.91,14.67,26.65z M21.15,27.23h-0.01c-0.44,0-0.53,0.67-0.53,0.76c-0.02,0.54-0.02,1.06-0.01,1.55	c0.04,1.95,0.26,2.63,0.37,2.85c0.21-0.29,0.53-1.26,0.52-2.86C21.49,27.52,21.18,27.25,21.15,27.23z M21.15,27.23h-0.01	c-0.44,0-0.53,0.67-0.53,0.76c-0.02,0.54-0.02,1.06-0.01,1.55c0.04,1.95,0.26,2.63,0.37,2.85c0.21-0.29,0.53-1.26,0.52-2.86	C21.49,27.52,21.18,27.25,21.15,27.23z M14.67,26.65v4.88c0.5-0.51,0.98-1.44,0.98-3.12C15.65,27.42,15.15,26.91,14.67,26.65z M15.51,19.43c-0.25-0.23-0.55-0.37-0.84-0.44v4.92c0.66-0.49,1.4-1.37,1.4-2.86C16.07,20.31,15.88,19.78,15.51,19.43z M14.67,26.65	v4.88c0.5-0.51,0.98-1.44,0.98-3.12C15.65,27.42,15.15,26.91,14.67,26.65z M15.51,19.43c-0.25-0.23-0.55-0.37-0.84-0.44v4.92	c0.66-0.49,1.4-1.37,1.4-2.86C16.07,20.31,15.88,19.78,15.51,19.43z"></path>
</svg>