<svg xmlns="http://www.w3.org/2000/svg" x="0px" y="0px" width="100" height="100" viewBox="0 0 50 50">
<path d="M 15 5 C 9.4886661 5 5 9.4886661 5 15 L 5 35 C 5 40.511334 9.4886661 45 15 45 L 35 45 C 40.511334 45 45 40.511334 45 35 L 45 15 C 45 9.4886661 40.511334 5 35 5 L 15 5 z M 37 11 C 38.105 11 39 11.895 39 13 C 39 14.105 38.105 15 37 15 C 35.895 15 35 14.105 35 13 C 35 11.895 35.895 11 37 11 z M 25 15 C 30.523 15 35 19.477 35 25 C 35 30.523 30.523 35 25 35 C 19.477 35 15 30.523 15 25 C 15 19.477 19.477 15 25 15 z"></path>
</svg>