<svg xmlns="http://www.w3.org/2000/svg" x="0px" y="0px" width="100" height="100" viewBox="0 0 48 48">
<linearGradient id="dL-mBE-1ZiRfH_igXjFxca_BfxcvceDl78F_gr1" x1="24" x2="24" y1="1064.905" y2="1009.836" gradientTransform="translate(0 -1014)" gradientUnits="userSpaceOnUse"><stop offset="0" stop-color="#005ce2"></stop><stop offset=".278" stop-color="#0080e8"></stop><stop offset=".569" stop-color="#009ced"></stop><stop offset=".82" stop-color="#00b0f1"></stop><stop offset="1" stop-color="#00b5f2"></stop></linearGradient><path fill="url(#dL-mBE-1ZiRfH_igXjFxca_BfxcvceDl78F_gr1)" d="M13.5,6h21c4.142,0,7.5,3.358,7.5,7.5v21c0,4.142-3.358,7.5-7.5,7.5h-21	C9.358,42,6,38.642,6,34.5v-21C6,9.358,9.358,6,13.5,6z"></path><path fill="#fff" d="M32.644,17.513C30.974,15.408,27.983,14,24.558,14c-4.113,0-7.604,2.028-8.922,4.859 c-3.097,1.089-5.194,4.336-4.505,7.967c0.508,2.678,2.611,4.853,5.248,5.43c1.948,0.426,3.788,0.008,5.252-0.945l0.424,4.249 c0.045,0.449,0.617,0.602,0.876,0.235l3.419-4.858c0.083,0.004,0.16,0.024,0.244,0.024c2.096,0,3.89-1.259,4.715-3.065 c0.163,0.016,0.321,0.05,0.488,0.05c2.873,0,5.203-2.355,5.203-5.26C37,20.074,35.111,17.924,32.644,17.513z"></path>
</svg>