<svg xmlns="http://www.w3.org/2000/svg" x="0px" y="0px" width="100" height="100" viewBox="0 0 64 64">
<path fill="#fff8ee" d="M57,13v38c0,3.31-2.69,6-6,6H13c-3.31,0-6-2.69-6-6V13c0-3.31,2.69-6,6-6h38C54.31,7,57,9.69,57,13z"></path><path fill="#8a8e99" d="M57,51.5c0,1.456-2.69,5.5-6,5.5H13c-3.31,0-6-3.544-6-5V39c0-2.209,1.791-4,4-4h42	c2.209,0,4,1.791,4,4V51.5z"></path><path fill="#acb7d0" d="M49,57H15c0-9.39,7.61-17,17-17S49,47.61,49,57z"></path><path fill="#85cbf8" d="M44,57H20c0-1.64,0.33-3.2,0.92-4.62C22.73,48.05,27,45,32,45s9.27,3.05,11.08,7.38	C43.67,53.8,44,55.36,44,57z"></path><path fill="#8d6c9f" d="M17,37c0.552,0,1-0.448,1-1v-2c0-0.552-0.448-1-1-1s-1,0.448-1,1v2C16,36.552,16.448,37,17,37z M12,33c-0.552,0-1,0.448-1,1v2c0,0.552,0.448,1,1,1s1-0.448,1-1v-2C13,33.448,12.552,33,12,33z M32,37c0.552,0,1-0.448,1-1v-2	c0-0.552-0.448-1-1-1s-1,0.448-1,1v2C31,36.552,31.448,37,32,37z M37,37c0.552,0,1-0.448,1-1v-2c0-0.552-0.448-1-1-1s-1,0.448-1,1v2	C36,36.552,36.448,37,37,37z M42,37c0.552,0,1-0.448,1-1v-2c0-0.552-0.448-1-1-1s-1,0.448-1,1v2C41,36.552,41.448,37,42,37z M47,37	c0.552,0,1-0.448,1-1v-2c0-0.552-0.448-1-1-1s-1,0.448-1,1v2C46,36.552,46.448,37,47,37z M52,33c-0.552,0-1,0.448-1,1v2	c0,0.552,0.448,1,1,1s1-0.448,1-1v-2C53,33.448,52.552,33,52,33z M22,37c0.552,0,1-0.448,1-1v-2c0-0.552-0.448-1-1-1s-1,0.448-1,1v2	C21,36.552,21.448,37,22,37z M27,37c0.552,0,1-0.448,1-1v-2c0-0.552-0.448-1-1-1s-1,0.448-1,1v2C26,36.552,26.448,37,27,37z"></path><path fill="#8d6c9f" d="M51,58H13c-3.859,0-7-3.141-7-7V13c0-3.859,3.141-7,7-7h38c3.859,0,7,3.141,7,7v38	C58,54.859,54.86,58,51,58z M13,8c-2.757,0-5,2.243-5,5v38c0,2.757,2.243,5,5,5h38c2.757,0,5-2.243,5-5V13c0-2.757-2.243-5-5-5H13z"></path><path fill="#fff8ee" d="M36,57h-8c0-2.21,1.79-4,4-4S36,54.79,36,57z"></path><path fill="#ace3ff" d="M43.08,52.38C42.43,52.79,41.69,53,40.95,53c-1.1,0-2.19-0.45-2.98-1.33C36.45,49.97,34.27,49,32,49	s-4.45,0.97-5.97,2.67c-1.32,1.47-3.49,1.74-5.11,0.71C22.73,48.05,27,45,32,45S41.27,48.05,43.08,52.38z"></path><path fill="#8d6c9f" d="M36,58h-8c-0.553,0-1-0.447-1-1c0-2.757,2.243-5,5-5s5,2.243,5,5C37,57.553,36.553,58,36,58z M29.171,56h5.658c-0.413-1.164-1.525-2-2.829-2C30.697,54,29.584,54.836,29.171,56z"></path><path fill="#8d6c9f" d="M44,58H20c-0.553,0-1-0.447-1-1c0-7.168,5.832-13,13-13s13,5.832,13,13C45,57.553,44.553,58,44,58z M21.045,56h21.91C42.449,50.401,37.729,46,32,46S21.552,50.401,21.045,56z"></path><path fill="#8d6c9f" d="M49,58H15c-0.553,0-1-0.447-1-1c0-9.925,8.075-18,18-18s18,8.075,18,18C50,57.553,49.553,58,49,58z M16.032,56h31.937C47.451,47.642,40.487,41,32,41S16.549,47.642,16.032,56z"></path><path fill="#8a8e99" d="M49,30H15c-1.105,0-2-0.895-2-2V14c0-1.105,0.895-2,2-2h34c1.105,0,2,0.895,2,2v14	C51,29.105,50.105,30,49,30z"></path><path fill="#7e8188" d="M51,30H13v-1c0-2.209,1.791-4,4-4h30c2.209,0,4,1.791,4,4V30z"></path><path fill="#8d6c9f" d="M49,31H15c-1.654,0-3-1.346-3-3V14c0-1.654,1.346-3,3-3h34c1.654,0,3,1.346,3,3v14	C52,29.654,50.655,31,49,31z M15,13c-0.552,0-1,0.448-1,1v14c0,0.552,0.448,1,1,1h34c0.552,0,1-0.448,1-1V14c0-0.552-0.448-1-1-1H15	z"></path><rect width="4" height="4" x="19.5" y="22.5" fill="#efc88e"></rect><path fill="#8d6c9f" d="M23.5,27h-4c-0.276,0-0.5-0.224-0.5-0.5v-4c0-0.276,0.224-0.5,0.5-0.5h4c0.276,0,0.5,0.224,0.5,0.5 v4C24,26.776,23.777,27,23.5,27z M20,26h3v-3h-3V26z"></path><rect width="4" height="4" x="26.5" y="22.5" fill="#acb7d0"></rect><path fill="#8d6c9f" d="M30.5,27h-4c-0.276,0-0.5-0.224-0.5-0.5v-4c0-0.276,0.224-0.5,0.5-0.5h4c0.276,0,0.5,0.224,0.5,0.5 v4C31,26.776,30.777,27,30.5,27z M27,26h3v-3h-3V26z"></path><rect width="4" height="4" x="33.5" y="22.5" fill="#acb7d0"></rect><path fill="#8d6c9f" d="M37.5,27h-4c-0.276,0-0.5-0.224-0.5-0.5v-4c0-0.276,0.224-0.5,0.5-0.5h4c0.276,0,0.5,0.224,0.5,0.5 v4C38,26.776,37.777,27,37.5,27z M34,26h3v-3h-3V26z"></path><g><rect width="4" height="4" x="40.5" y="22.5" fill="#acb7d0"></rect><path fill="#8d6c9f" d="M44.5,27h-4c-0.276,0-0.5-0.224-0.5-0.5v-4c0-0.276,0.224-0.5,0.5-0.5h4c0.276,0,0.5,0.224,0.5,0.5 v4C45,26.776,44.777,27,44.5,27z M41,26h3v-3h-3V26z"></path></g><g><path fill="#85cbf8" d="M26.5,20c-0.276,0-0.5-0.224-0.5-0.5v-4c0-0.276,0.224-0.5,0.5-0.5s0.5,0.224,0.5,0.5v4 C27,19.776,26.777,20,26.5,20z"></path><path fill="#85cbf8" d="M21.5,19.5c-0.276,0-0.5-0.224-0.5-0.5v-3.5c0-0.276,0.224-0.5,0.5-0.5s0.5,0.224,0.5,0.5V19 C22,19.276,21.777,19.5,21.5,19.5z"></path><path fill="#85cbf8" d="M30.5,20h-2c-0.276,0-0.5-0.224-0.5-0.5v-2c0-0.276,0.224-0.5,0.5-0.5H30v-1h-1.5 c-0.276,0-0.5-0.224-0.5-0.5s0.224-0.5,0.5-0.5h2c0.276,0,0.5,0.224,0.5,0.5v2c0,0.276-0.224,0.5-0.5,0.5H29v1h1.5 c0.276,0,0.5,0.224,0.5,0.5S30.777,20,30.5,20z"></path><path fill="#85cbf8" d="M34.5,20h-2c-0.276,0-0.5-0.224-0.5-0.5v-4c0-0.276,0.224-0.5,0.5-0.5h2c0.276,0,0.5,0.224,0.5,0.5 v4C35,19.776,34.777,20,34.5,20z M33,19h1v-3h-1V19z"></path></g><ellipse cx="20.5" cy="19" fill="#85cbf8" rx="1.5" ry="1"></ellipse>
</svg>